<svg width="480" height="480" viewBox="0 0 480 480" fill="none" xmlns="http://www.w3.org/2000/svg">
<g clip-path="url(#clip0)">
<path d="M314.879 229.121C314.918 222.742 312.414 216.609 307.922 212.082C298.387 203.051 283.453 203.051 273.922 212.082L240 246.082L206.082 212.082C196.547 203.051 181.613 203.051 172.082 212.082C167.563 216.586 165.02 222.699 165.02 229.082C165.02 235.461 167.563 241.578 172.082 246.082L192 266C195.137 269.137 200.223 269.137 203.359 266C206.496 262.863 206.496 257.777 203.359 254.641L183.441 234.723C180.34 231.602 180.34 226.563 183.441 223.441C186.563 220.34 191.602 220.34 194.719 223.441L234.32 263.441C235.824 264.957 237.867 265.809 240 265.809C242.133 265.809 244.18 264.957 245.68 263.441L285.281 223.441C288.402 220.34 293.441 220.34 296.559 223.441C299.664 226.563 299.664 231.602 296.559 234.723L256.559 274.32C255.047 275.824 254.195 277.867 254.195 280C254.195 282.133 255.047 284.18 256.559 285.68L296.559 325.281C299.664 328.402 299.664 333.441 296.559 336.562C293.441 339.664 288.402 339.664 285.281 336.562L245.68 296.562C244.18 295.047 242.133 294.195 240 294.195C237.867 294.195 235.824 295.047 234.32 296.562L194.719 336.562C191.602 339.664 186.563 339.664 183.441 336.562C180.34 333.441 180.34 328.402 183.441 325.281L223.039 285.68C226.176 282.543 226.176 277.457 223.039 274.32C219.902 271.184 214.816 271.184 211.68 274.32L172.082 314.32C167.563 318.824 165.02 324.941 165.02 331.32C165.02 337.699 167.563 343.816 172.082 348.32C181.613 357.352 196.547 357.352 206.082 348.32L240 313.922L273.922 347.922C283.309 357.309 298.531 357.309 307.922 347.922C317.309 338.531 317.309 323.309 307.922 313.922L273.922 280L307.922 246.082C312.395 241.57 314.895 235.473 314.879 229.121V229.121Z" fill="#EF0330"/>
<path d="M64 344V312C64 307.582 60.418 304 56 304C51.582 304 48 307.582 48 312V344C48 348.418 51.582 352 56 352C60.418 352 64 348.418 64 344Z" fill="#333333"/>
<path d="M56 368C25.0742 368 0 393.074 0 424C0 454.93 25.0742 480 56 480C86.9297 480 112 454.93 112 424C112 393.074 86.9297 368 56 368ZM56 464C33.9102 464 16 446.094 16 424C16 401.91 33.9102 384 56 384C78.0898 384 96 401.91 96 424C96 446.094 78.0898 464 56 464Z" fill="#333333"/>
<path d="M440 376C440 380.418 436.418 384 432 384C427.582 384 424 380.418 424 376C424 371.582 427.582 368 432 368C436.418 368 440 371.582 440 376Z" fill="#333333"/>
<path d="M440 344V304C440 299.582 436.418 296 432 296C427.582 296 424 299.582 424 304V344C424 348.418 427.582 352 432 352C436.418 352 440 348.418 440 344Z" fill="#333333"/>
<path d="M72.9609 407.039C69.8398 403.938 64.8008 403.938 61.6797 407.039L56 412.723L50.3203 407.039C47.1445 404.324 42.4141 404.504 39.4609 407.461C36.5039 410.414 36.3203 415.148 39.0391 418.32L44.7188 424L39.0391 429.68C35.9375 432.801 35.9375 437.84 39.0391 440.961C42.1602 444.062 47.1992 444.062 50.3203 440.961L56 435.281L61.6797 440.961C64.8008 444.062 69.8398 444.062 72.9609 440.961C76.0625 437.84 76.0625 432.801 72.9609 429.68L67.2812 424L72.9609 418.32C76.0625 415.199 76.0625 410.16 72.9609 407.039Z" fill="#333333"/>
<path d="M448.961 402.32C445.84 399.219 440.801 399.219 437.68 402.32L432 408L426.32 402.32C423.199 399.219 418.16 399.219 415.039 402.32C413.527 403.824 412.676 405.867 412.676 408C412.676 410.133 413.527 412.18 415.039 413.68L420.719 419.281L415.039 424.961C411.902 428.074 411.887 433.145 415 436.281C418.117 439.418 423.184 439.438 426.32 436.32L432 430.641L437.68 436.32C440.816 439.438 445.887 439.418 449 436.281C452.117 433.145 452.098 428.074 448.961 424.961L443.281 419.281L448.961 413.68C450.477 412.18 451.328 410.133 451.328 408C451.328 405.867 450.477 403.824 448.961 402.32Z" fill="#333333"/>
<path d="M176 464H128C123.582 464 120 467.582 120 472C120 476.418 123.582 480 128 480H176C180.418 480 184 476.418 184 472C184 467.582 180.418 464 176 464Z" fill="#333333"/>
<path d="M240 448C235.582 448 232 451.582 232 456V464H216C211.582 464 208 467.582 208 472C208 476.418 211.582 480 216 480H240C244.418 480 248 476.418 248 472V456C248 451.582 244.418 448 240 448Z" fill="#333333"/>
<path d="M392 408H360C355.582 408 352 411.582 352 416C352 420.418 355.582 424 360 424H392C396.418 424 400 420.418 400 416C400 411.582 396.418 408 392 408Z" fill="#333333"/>
<path d="M411.199 114.16C393.633 47.1717 333.254 0.343545 264 -0.000204877C203.906 -0.191611 149.41 35.2381 125.199 90.242C118.234 88.7459 111.125 87.992 104 87.9998C55.0467 88.1365 12.8123 122.394 2.58186 170.269C-7.64861 218.144 16.8944 266.672 61.5194 286.801C62.5545 287.242 63.6756 287.461 64.8006 287.441C68.7108 287.617 72.1717 284.937 72.9842 281.109C73.8006 277.285 71.7225 273.429 68.0819 272C27.117 252.508 7.68342 205.07 23.199 162.441C38.7147 119.812 84.0897 95.9646 128 107.359C131.984 108.512 136.183 106.426 137.68 102.562C157.812 50.3435 208.035 15.9295 264 15.9998C327.742 16.3123 382.824 60.6092 396.801 122.801C397.515 126.008 400.117 128.449 403.359 128.961C438.273 134.539 463.972 164.644 464 200C463.992 231.808 443.113 259.844 412.64 268.961C408.398 270.219 405.98 274.679 407.242 278.922C408.5 283.164 412.957 285.578 417.199 284.32C454.359 273.023 479.82 238.836 480 200C480.164 158.75 451.496 122.984 411.199 114.16V114.16Z" fill="#333333"/>
<path d="M354.961 367.121C358.609 369.547 363.535 368.582 366 364.961C411.179 298.461 396.765 208.281 333.105 159.179C269.441 110.082 178.558 119.047 125.715 179.636C72.8747 240.226 76.3551 331.488 133.656 387.879C190.961 444.269 282.265 446.285 342 392.48C345.269 389.5 345.504 384.429 342.519 381.16C339.539 377.89 334.468 377.66 331.199 380.64C277.765 428.453 196.343 426.402 145.386 375.961C94.4255 325.515 91.5465 244.121 138.812 190.203C186.078 136.285 267.152 128.48 323.832 172.398C380.511 216.316 393.207 296.765 352.8 356C351.609 357.761 351.168 359.922 351.574 362.007C351.98 364.093 353.195 365.933 354.961 367.121V367.121Z" fill="#333333"/>
</g>
<defs>
<clipPath id="clip0">
<rect width="480" height="480" fill="white"/>
</clipPath>
</defs>
</svg>
