<?xml version="1.0" encoding="iso-8859-1"?>
<!-- Generator: Adobe Illustrator 19.0.0, SVG Export Plug-In . SVG Version: 6.00 Build 0)  -->
<svg version="1.1" id="Capa_1" xmlns="http://www.w3.org/2000/svg" xmlns:xlink="http://www.w3.org/1999/xlink" x="0px" y="0px"
	 viewBox="0 0 512 512" style="enable-background:new 0 0 512 512;" xml:space="preserve">
<path style="fill:#664B34;" d="M376,316c0,24.899-20.099,45-45,45H196c-8.401,0-15-6.601-15-15c0-8.401,6.599-15,15-15h135
	c8.401,0,15-6.601,15-15c0-8.401-6.599-15-15-15s-15-6.601-15-15c0-8.401,6.599-15,15-15C355.901,271,376,291.099,376,316z"/>
<path style="fill:#59422D;" d="M406,136c0,8.399-6.599,15-15,15h-11.7c-8.099,0-15,6.599-15,14.399L363.97,181l-30.569,13.799
	c0-0.298,0-0.298,0-0.599l0.3-14.101l0.599-15.3c0.601-24,20.7-43.799,45-43.799H391C399.401,121,406,127.599,406,136z"/>
<path style="fill:#10BB67;" d="M363.97,181c-0.85,21.64-0.31,1.71-2.97,105.3c-0.3,8.1-6.9,14.7-15,14.7H166
	c-6.6,0-12.3-4.2-14.1-10.2l-30-90c-1.5-4.5-0.9-9.6,1.8-13.5c3-3.9,7.5-6.3,12.3-6.3L363.97,181L363.97,181z"/>
<path style="fill:#59422D;" d="M376,316c0,24.899-20.099,45-45,45h-75v-30h75c8.401,0,15-6.601,15-15c0-8.401-6.599-15-15-15
	s-15-6.601-15-15c0-8.401,6.599-15,15-15C355.901,271,376,291.099,376,316z"/>
<path style="fill:#73553A;" d="M194.506,421c-24.814,0-45-20.186-45-45s20.186-45,45-45s45,20.186,45,45S219.32,421,194.506,421z"/>
<path style="fill:#CAE8F9;" d="M194.506,391c-8.276,0-15-6.724-15-15s6.724-15,15-15s15,6.724,15,15S202.782,391,194.506,391z"/>
<path style="fill:#59422D;" d="M334.003,421c-24.814,0-45-20.186-45-45s20.186-45,45-45s45,20.186,45,45S358.817,421,334.003,421z"
	/>
<path style="fill:#B7E0F6;" d="M334.003,391c-8.276,0-15-6.724-15-15s6.724-15,15-15s15,6.724,15,15S342.279,391,334.003,391z"/>
<path style="fill:#0CA656;" d="M363.97,181c-0.85,21.64-0.31,1.71-2.97,105.3c-0.3,8.1-6.9,14.7-15,14.7h-90V181H363.97z"/>
<path style="fill:#FD4E26;" d="M256,0C115,0,0,114.699,0,256c0,140.7,115,256,256,256c141.301,0,256-115.6,256-256
	C512,115,396.7,0,256,0z M256,482C132.1,482.3,29.7,380.2,30,256c0-57.301,22.599-109.501,56.8-147.9L256,277.299L403.9,425.2
	C365.501,459.399,313.299,482,256,482z M425.2,403.9L108.1,86.8C146.499,52.599,198.701,30,256,30c124.2,0,226,101.8,226,226
	C482,313.599,459.401,365.499,425.2,403.9z"/>
<path style="fill:#FD3018;" d="M512,256c0,140.4-114.699,256-256,256v-30c57.299,0,109.501-22.601,147.9-56.8L256,277.299V234.7
	l169.2,169.2C459.4,365.499,482,313.6,482,256c0-124.2-101.8-226-226-226V0C396.7,0,512,115,512,256z"/>
<g>
</g>
<g>
</g>
<g>
</g>
<g>
</g>
<g>
</g>
<g>
</g>
<g>
</g>
<g>
</g>
<g>
</g>
<g>
</g>
<g>
</g>
<g>
</g>
<g>
</g>
<g>
</g>
<g>
</g>
</svg>
