<svg width="45" height="50" viewBox="0 0 45 50" fill="none" xmlns="http://www.w3.org/2000/svg">
<path d="M42.0105 19.8276L8.56541 0.710128C7.75268 0.245495 6.82799 0 5.89176 0C4.94332 0 4.00839 0.251594 3.18804 0.727554C1.53253 1.68797 0.50415 3.47353 0.50415 5.3876V43.6228C0.50415 45.5366 1.53253 47.3222 3.18761 48.2826C4.00796 48.759 4.9431 49.0106 5.89154 49.0106C6.82734 49.0106 7.75203 48.7649 8.56519 48.3002L42.0098 29.1825C43.6841 28.2254 44.724 26.4333 44.724 24.5051C44.724 22.5768 43.6845 20.7847 42.0105 19.8276ZM27.5175 15.3072L22.9255 21.7036L11.9413 6.40357L27.5175 15.3072ZM5.68089 45.7244C5.38225 45.6954 5.08927 45.6083 4.82765 45.4565C4.17634 45.0785 3.77161 44.3758 3.77161 43.6228V5.38739C3.77161 4.63435 4.17634 3.93162 4.82787 3.55369C5.08861 3.4023 5.3792 3.31211 5.67785 3.2814L20.9142 24.5051L5.68089 45.7244ZM11.9413 42.6068L22.9255 27.3066L27.5175 33.703L11.9413 42.6068ZM40.3887 26.3455L30.3694 32.0727L24.9365 24.5051L30.3694 16.9374L40.3887 22.6646C41.0474 23.0412 41.4567 23.7464 41.4567 24.5051C41.4567 25.2638 41.0477 25.9691 40.3887 26.3455Z" fill="#333333"/>
</svg>
