<svg width="50" height="50" viewBox="0 0 50 50" fill="none" xmlns="http://www.w3.org/2000/svg">
<path d="M39.6319 0H10.7234C5.18124 0 0.672363 4.50888 0.672363 10.051V38.9596C0.672363 44.5017 5.18124 49.0106 10.7234 49.0106H39.6319C45.1741 49.0106 49.6829 44.5017 49.6829 38.9596V10.051C49.6829 4.50888 45.1741 0 39.6319 0ZM46.8112 38.9596C46.8112 42.9182 43.5906 46.1389 39.6319 46.1389H10.7234C6.7647 46.1389 3.54408 42.9182 3.54408 38.9596V10.051C3.54408 6.09234 6.7647 2.87171 10.7234 2.87171H39.6319C43.5906 2.87171 46.8112 6.09234 46.8112 10.051V38.9596Z" fill="#333333"/>
<path d="M29.9299 11.8279C29.7644 11.2105 29.3685 10.6944 28.8149 10.3748C27.6723 9.71511 26.2059 10.1079 25.5459 11.2508L25.1776 11.8887L24.8092 11.2507C24.1494 10.1081 22.683 9.71511 21.5403 10.3747H21.5402C20.3974 11.0346 20.0046 12.501 20.6643 13.6438L22.4142 16.6748L15.9573 27.8587H11.2498C9.93023 27.8587 8.85669 28.9322 8.85669 30.2518C8.85669 31.5713 9.93023 32.6449 11.2498 32.6449H29.4239L26.6605 27.8587H21.4839L29.6908 13.6439C30.0104 13.0903 30.0954 12.4453 29.9299 11.8279Z" fill="#333333"/>
<path d="M39.1058 27.8553H34.3983L29.0467 18.5859L26.2834 23.3721L34.5927 37.764C34.9123 38.3177 35.4282 38.7137 36.0458 38.8792C36.252 38.9344 36.4612 38.9618 36.6691 38.9618C37.0838 38.9618 37.4931 38.8531 37.8619 38.6401C39.0047 37.9802 39.3975 36.5138 38.7377 35.3711L37.1616 32.6414H39.1058C40.4254 32.6414 41.4989 31.5679 41.4989 30.2483C41.4989 28.9288 40.4254 27.8553 39.1058 27.8553Z" fill="#333333"/>
<path d="M12.0891 34.5586L11.6184 35.3738C10.9587 36.5165 11.3517 37.983 12.4944 38.6427C12.8703 38.8597 13.2812 38.9629 13.6869 38.9628C14.5146 38.9628 15.3207 38.5336 15.7635 37.7668L17.6157 34.5586H12.0891Z" fill="#333333"/>
</svg>
