<svg width="210" height="41" viewBox="0 0 210 41" fill="none" xmlns="http://www.w3.org/2000/svg">
<path d="M24.4565 6.15712C24.4565 7.69432 24.4565 9.74392 24.2935 12.6475C24.1304 15.5511 24.1304 17.7715 24.1304 19.3087V31.9479C24.1304 32.2895 23.9674 32.4603 23.6413 32.4603H18.0978C17.9348 32.4603 17.6087 32.2895 17.2826 31.7771C16.4674 30.5815 9.29348 19.1379 7.5 16.7467C7.5 16.7467 7.33696 16.5759 7.17391 16.5759V17.0883C7.17391 18.6255 7.17391 20.8459 7.33696 23.7495C7.33696 26.6531 7.5 30.4107 7.5 31.9479C7.5 32.4603 7.33696 32.6311 7.01087 32.6311H0.48913C0.163043 32.4603 0 32.2895 0 31.9479C0 30.5815 0 28.5319 0.163043 25.6283C0.326087 22.8955 0.326087 20.6751 0.326087 19.3087C0.326087 17.7715 0.326087 15.5511 0.163043 12.6475C0.163043 9.91472 0 7.69432 0 6.15712C0 5.81552 0.163043 5.81552 0.652174 5.81552C1.30435 5.81552 2.28261 5.81552 3.26087 5.64472C3.42391 5.64472 3.91304 5.47392 4.72826 5.47392C5.38043 5.30312 5.86957 5.13232 6.19565 5.13232C6.3587 5.13232 6.52174 5.30312 6.84783 5.81552C6.84783 5.81552 15.163 19.8211 16.4674 21.5291C16.7935 21.8707 16.9565 22.0415 17.2826 22.0415C17.4457 22.0415 17.4457 21.5291 17.4457 20.5043C17.4457 19.1379 16.9565 7.69432 16.9565 6.32792C16.9565 5.81552 17.1196 5.64472 17.2826 5.64472C17.9348 5.64472 19.0761 5.64472 20.5435 5.47392C22.0109 5.47392 23.1522 5.30312 23.8043 5.30312C24.4565 5.64472 24.4565 5.81552 24.4565 6.15712ZM210 6.15712C210 7.69432 210 9.74392 209.837 12.6475C209.674 15.5511 209.674 17.7715 209.674 19.3087V31.9479C209.674 32.2895 209.511 32.4603 209.185 32.4603H203.641C203.478 32.4603 203.152 32.2895 202.826 31.7771C202.011 30.5815 194.837 19.1379 193.043 16.7467C193.043 16.7467 192.88 16.5759 192.717 16.5759C192.554 16.7467 192.554 16.7467 192.554 16.9175C192.554 18.4547 192.554 20.6751 192.717 23.5787C192.717 26.4823 192.88 30.2399 192.88 31.7771C192.88 32.2895 192.717 32.4603 192.391 32.4603H186.033C185.707 32.4603 185.543 32.2895 185.543 31.9479C185.543 30.5815 185.543 28.5319 185.707 25.6283C185.87 22.8955 185.87 20.6751 185.87 19.3087C185.87 17.7715 185.87 15.5511 185.707 12.6475C185.543 9.74392 185.543 7.52352 185.543 5.98632C185.543 5.64472 185.707 5.64472 186.196 5.64472C186.848 5.64472 187.826 5.64472 188.804 5.47392C189.13 5.47392 189.457 5.30312 190.272 5.30312C190.924 5.13232 191.413 5.13232 191.739 5.13232C191.902 5.13232 192.065 5.30312 192.391 5.81552C192.391 5.81552 200.707 19.8211 202.011 21.5291C202.337 21.8707 202.5 22.0415 202.826 22.0415C202.989 22.0415 202.989 21.5291 202.989 20.5043C202.989 19.1379 202.5 7.69432 202.5 6.32792C202.5 5.81552 202.663 5.64472 202.826 5.64472C203.478 5.64472 204.62 5.64472 206.087 5.47392C207.554 5.47392 208.696 5.30312 209.348 5.30312C210 5.64472 210 5.81552 210 6.15712ZM52.1739 31.9479C52.1739 32.1187 52.0109 32.2895 51.6848 32.4603C51.3587 32.6311 50.2174 32.6311 48.2609 32.6311C46.4674 32.6311 45.3261 32.6311 44.837 32.4603C44.3478 32.2895 44.1848 32.1187 44.0217 31.6063C43.5326 29.7275 42.8804 28.0195 42.7174 27.8487C42.5543 27.6779 35.2174 27.8487 35.0543 28.0195C34.8913 28.1903 34.4022 29.5567 34.2391 30.7523C34.0761 31.7771 33.75 32.4603 33.4239 32.4603C32.9348 32.6311 31.6304 32.6311 29.1848 32.6311C27.3913 32.6311 26.413 32.4603 26.413 32.1187C26.413 31.7771 27.7174 27.6779 30.4891 19.8211C33.4239 11.2811 35.0543 6.66952 35.3804 5.81552C35.5435 5.30312 35.7065 5.13232 35.8696 5.13232H37.5C38.1522 5.13232 38.6413 5.30312 39.1304 5.30312H42.0652C42.2283 5.30312 42.5543 5.47392 42.7174 5.98632C43.3696 7.35272 45 11.9643 47.9348 19.8211C50.7065 27.5071 52.1739 31.6063 52.1739 31.9479ZM39.1304 14.5263C39.1304 13.8431 38.4783 16.2343 37.8261 18.1131C37.1739 20.1627 36.0326 22.7247 36.0326 23.0663C36.0326 23.2371 36.3587 23.4079 37.1739 23.4079H40.7609C41.5761 23.4079 42.0652 23.2371 42.0652 23.0663V22.7247C42.0652 22.3831 40.7609 19.6503 40.2717 17.7715C39.7826 16.2343 39.1304 14.1847 39.1304 14.5263ZM118.696 31.9479C118.696 32.1187 118.533 32.2895 118.207 32.4603C117.88 32.6311 116.739 32.6311 114.783 32.6311C112.989 32.6311 111.848 32.6311 111.359 32.4603C110.87 32.2895 110.707 32.1187 110.543 31.6063C110.054 29.7275 109.402 28.0195 109.239 27.8487C109.076 27.6779 101.739 27.8487 101.576 28.0195C101.413 28.1903 100.924 29.5567 100.761 30.7523C100.598 31.7771 100.272 32.4603 99.9456 32.4603C99.4565 32.6311 98.1522 32.6311 95.7065 32.6311C93.913 32.6311 92.9348 32.4603 92.9348 32.1187C92.9348 31.7771 94.2391 27.6779 97.0109 19.8211C99.9456 11.2811 101.576 6.66952 101.902 5.81552C102.065 5.30312 102.228 5.13232 102.391 5.13232H104.022C104.674 5.13232 105.163 5.30312 105.652 5.30312H108.587C108.75 5.30312 109.076 5.47392 109.239 5.98632C109.891 7.35272 111.522 11.9643 114.457 19.8211C117.228 27.5071 118.696 31.6063 118.696 31.9479ZM105.652 14.5263C105.326 15.0387 105 16.2343 104.348 18.1131C103.696 20.1627 102.554 22.7247 102.554 23.0663C102.554 23.2371 102.88 23.4079 103.696 23.4079H107.283C108.098 23.4079 108.587 23.2371 108.587 23.0663V22.7247C108.587 22.3831 107.283 19.6503 106.793 17.7715C106.304 16.2343 105.978 15.0387 105.652 14.5263ZM89.1848 32.8019H85.1087C82.9891 32.8019 81.5217 32.8019 81.0326 32.6311H73.0435C72.7174 32.6311 72.5543 32.2895 72.5543 32.1187V19.4795C72.5543 17.9423 72.5544 15.7219 72.3913 12.8183C72.2283 9.91471 72.2283 7.69432 72.2283 6.15712C72.2283 5.81552 72.3913 5.81552 72.7174 5.81552H79.5652C79.7283 5.81552 79.8913 5.98632 79.8913 6.15712V6.32792C80.0543 8.54832 79.8913 12.3059 79.7283 17.0883V28.0195C79.7283 28.1903 79.8913 28.1903 80.0543 28.3611H80.5435C81.6848 28.3611 83.3152 28.3611 85.4348 28.1903C87.5544 28.0195 89.3478 28.0195 90.3261 28.0195C90.6522 28.0195 90.8152 28.1903 90.8152 28.5319C90.8152 30.7523 90.6522 30.9231 90.3261 32.6311C90.3261 32.9727 90.163 33.1435 90 33.1435C90 32.8019 89.6739 32.8019 89.1848 32.8019ZM181.304 18.2839C181.304 19.8211 181.304 22.0415 181.467 25.1159C181.467 28.1903 181.63 30.4107 181.63 31.9479C181.63 32.2895 181.63 32.2895 181.467 32.4603H180.978C180.163 32.6311 179.185 32.6311 177.717 32.6311C175.924 32.6311 174.783 32.6311 174.293 32.4603C173.967 32.4603 173.804 32.1187 173.804 31.9479C173.804 32.1187 173.804 31.0939 173.967 28.5319C174.13 23.4079 174.293 19.9919 174.293 18.2839C174.293 16.9175 174.293 14.8679 174.13 12.1351C173.967 9.40232 173.967 7.35272 173.967 5.98632C173.967 5.64472 174.13 5.64472 174.457 5.64472H181.304C181.63 5.64472 181.793 5.81552 181.793 5.98632C181.793 7.35272 181.793 9.40232 181.63 12.1351C181.304 14.8679 181.304 16.9175 181.304 18.2839ZM144.457 19.3087C144.457 23.0663 143.315 26.3115 141.033 29.0443C138.913 31.4355 136.141 32.8019 132.391 32.9727H120.978C120.652 32.9727 120.489 32.8019 120.489 32.4603C120.489 31.0939 120.489 28.8735 120.652 26.1407C120.815 23.2371 120.815 21.1875 120.815 19.8211C120.815 18.2839 120.815 16.0635 120.652 13.1599V6.49872C120.652 6.15712 120.815 5.98632 121.141 5.98632C121.957 5.81552 123.424 5.81552 125.38 5.81552C129.13 5.81552 131.576 5.81552 132.717 5.98632C135.652 6.32792 137.935 7.01112 139.565 8.20672C141.033 9.40232 142.337 10.9395 143.152 12.9891C144.13 15.2095 144.457 17.2591 144.457 19.3087ZM137.12 19.8211C137.12 15.7219 135.489 10.9395 131.087 10.9395C129.13 10.9395 127.826 10.7687 127.826 11.2811V28.1903C127.826 28.7027 128.804 28.7027 130.761 28.7027C135.326 28.7027 137.12 23.9203 137.12 19.8211ZM171.033 19.3087C171.033 23.0663 169.891 26.3115 167.609 29.0443C165.489 31.4355 162.717 32.8019 158.967 32.9727H147.554C147.228 32.9727 147.065 32.8019 147.065 32.4603C147.065 31.0939 147.065 28.8735 147.228 26.1407C147.391 23.2371 147.391 21.1875 147.391 19.8211C147.391 18.2839 147.391 16.0635 147.228 13.1599C147.065 10.2563 147.065 8.03592 147.065 6.49872C147.065 6.15712 147.228 5.98632 147.554 5.98632C148.37 5.81552 149.837 5.81552 151.793 5.81552C155.543 5.81552 157.989 5.81552 159.13 5.98632C162.065 6.32792 164.348 7.01112 165.978 8.20672C167.446 9.40232 168.75 10.9395 169.565 12.9891C170.543 15.2095 171.033 17.2591 171.033 19.3087ZM163.533 19.8211C163.533 15.7219 161.902 10.9395 157.5 10.9395C155.543 10.9395 154.239 10.7687 154.239 11.2811V28.1903C154.239 28.7027 155.217 28.7027 157.174 28.7027C161.902 28.7027 163.533 23.9203 163.533 19.8211Z" fill="#333333"/>
<path d="M64.0759 0.00807532C64.5651 -0.162724 62.2825 2.39927 61.4673 5.47367C60.8151 7.18166 61.3042 12.4765 64.0759 17.7712C65.7064 21.1872 67.826 25.7988 65.8694 30.2396C64.8912 34.3388 58.0433 40.6584 55.7607 41C56.2499 40.146 57.7173 37.2424 58.8586 33.1432C60.9781 25.9696 54.7825 19.1376 54.2933 13.6721C53.6412 6.32766 63.4238 0.178875 64.0759 0.00807532Z" fill="#65C800"/>
</svg>
