<svg width="130" height="131" viewBox="0 0 130 131" fill="none" xmlns="http://www.w3.org/2000/svg">
<path d="M53.4348 130.469H20.1182V0.148438H84.8145C98.761 0.148438 109.737 4.31662 117.744 12.653C125.75 20.8591 129.753 31.1493 129.753 43.5236C129.753 55.7677 125.75 66.0579 117.744 74.3943C109.737 82.6004 98.761 86.7035 84.8145 86.7035H53.4348V130.469ZM80.3594 57.3959C84.8791 57.3959 88.5594 56.1585 91.4004 53.6836C94.3704 51.2087 95.8555 47.8221 95.8555 43.5236C95.8555 39.0949 94.3704 35.6432 91.4004 33.1683C88.5594 30.6934 84.8791 29.456 80.3594 29.456H53.4348V57.3959H80.3594Z" fill="#EF0330"/>
<rect x="0.3396" y="57.3984" width="60.4126" height="29.2928" fill="#EF0330"/>
<rect x="0.3396" y="96.5586" width="93.5669" height="22.5941" fill="#EF0330"/>
</svg>
